<?xml version="1.0" ?>

<!-- Uploaded to: SVG Repo, www.svgrepo.com, Generator: SVG Repo Mixer Tools -->
<svg fill="#fff" width="800px" height="800px" viewBox="0 0 512 512" version="1.1" xml:space="preserve" xmlns="http://www.w3.org/2000/svg" xmlns:xlink="http://www.w3.org/1999/xlink">

<g id="picture-photo-heart-love-valentine">

<path d="M440,104.229H311.87c-0.115-6.789-2.132-13.527-6.494-19.204C292.961,68.863,269.847,67.782,256,81.78   c-13.847-13.998-36.961-12.917-49.375,3.245c-4.361,5.677-6.378,12.415-6.494,19.204H72c-17.673,0-32,14.327-32,32V376   c0,17.673,14.327,32,32,32h368c17.673,0,32-14.327,32-32V136.229C472,118.555,457.673,104.229,440,104.229z M304,248   c0-16.234,12.148-29.68,27.949-31.75c3.355,7.383,8.742,13.773,15.574,18.383c5.973,4.031,12.75,6.469,19.879,7.18   C367.805,243.82,368,245.867,368,248v16c0,10-4.789,19.57-12.836,25.625C334.413,305.376,304,290.519,304,264V248z M320,309.297   c0.115,0.041,0.24,0.051,0.355,0.091c10.441,3.586,22.053,3.285,31.645-0.091v16.375c-2.852,4.617-9.719,16.398-16,32.398   c-6.281-16-13.148-27.781-16-32.398V309.297z M144,264v-16c0-16.234,12.145-29.68,27.949-31.75   c3.352,7.383,8.738,13.773,15.574,18.383c5.973,4.031,12.75,6.469,19.879,7.18C207.805,243.82,208,245.867,208,248v16   c0,17.648-14.355,32-32,32S144,281.648,144,264z M224,264v-8c4.367,0,8,3.633,8,8c0,4.414-3.59,8-8,8h-0.723   C223.718,269.392,224,266.731,224,264z M128,256c0,6.152-0.229,10.364,0.723,16H128C117.516,272,117.379,256,128,256z M192,309.2   v29.208c-9.509,7.452-22.481,7.46-32,0V309.2C170.202,312.823,181.178,313.043,192,309.2z M440,368c0,4.418-3.582,8-8,8h-16v-16   c0-17.68-14.32-32-32-32h-16v-28.319c1.292-1.163,2.504-2.393,3.655-3.681H392c8.837,0,16-7.164,16-16v-40   c0-39.765-32.235-72-72-72s-72,32.235-72,72v40c0,8.836,7.164,16,16,16h20.339c1.152,1.291,2.368,2.522,3.661,3.687V328h-16   c-17.68,0-32,14.32-32,32c0-17.673-14.327-32-32-32h-16v-28.324c3.748-3.364,6.962-7.294,9.506-11.676H224   c13.234,0,24-10.766,24-24c0-6.484-2.535-12.523-6.844-16.711c-3.282-3.55-6.043-4.617-9.156-5.73V216c0-26.48-21.52-48-48-48h-16   c-26.48,0-48,21.52-48,48v25.561c-10.574,3.786-16,12.979-16,22.439c0,13.395,10.884,24,24,24h6.494   c2.544,4.382,5.758,8.312,9.506,11.676V328h-16c-17.673,0-32,14.327-32,32v16H80c-4.418,0-8-3.582-8-8V144c0-4.418,3.582-8,8-8   h136.54l26.199,26.485c7.318,7.398,19.204,7.398,26.522,0L295.46,136H432c4.418,0,8,3.582,8,8V368z"/>

</g>

<g id="Layer_1"/>

</svg>